<?xml version="1.0" standalone="no"?>
<!DOCTYPE svg PUBLIC "-//W3C//DTD SVG 20010904//EN"
 "http://www.w3.org/TR/2001/REC-SVG-20010904/DTD/svg10.dtd">
<svg version="1.0" xmlns="http://www.w3.org/2000/svg"
 width="128.000000pt" height="128.000000pt" viewBox="0 0 128.000000 128.000000"
 preserveAspectRatio="xMidYMid meet">
<metadata>
Created by potrace 1.11, written by Peter Selinger 2001-2013
</metadata>
<g transform="translate(0.000000,128.000000) scale(0.100000,-0.100000)"
fill="#000000" stroke="none">
<path d="M536 1270 c-205 -37 -377 -163 -463 -340 -53 -109 -67 -172 -67 -290
0 -118 14 -181 67 -290 77 -159 241 -289 417 -331 71 -17 229 -17 300 0 176
42 340 172 417 331 53 109 67 172 67 290 0 118 -14 181 -67 290 -75 154 -229
281 -397 325 -70 19 -210 27 -274 15z m158 -155 c31 -29 65 -99 66 -135 l0
-24 16 22 c19 28 49 28 68 0 14 -19 16 -64 16 -288 l0 -266 30 -22 c26 -20 30
-29 30 -73 0 -46 -2 -52 -28 -61 -16 -6 -33 -21 -38 -32 -6 -14 -20 -22 -41
-24 -27 -3 -35 1 -45 22 -14 33 -28 33 -28 2 0 -36 -35 -56 -100 -56 -65 0
-100 20 -100 56 0 31 -14 31 -28 -2 -10 -21 -18 -25 -45 -22 -21 2 -35 10 -41
24 -5 11 -22 26 -38 32 -26 9 -28 15 -28 61 0 44 4 53 30 73 l30 22 0 266 c0
224 2 269 16 288 19 28 49 28 68 0 l16 -22 0 24 c1 34 34 105 64 135 33 33 75
33 110 0z"/>
</g>
</svg>
